# xmcd
#
# Track frame offsets: 
#        150
#        22019
#        39758
#        61235
#        77422
#        92093
#        106587
#        117705
#        132790
#        144636
#
# Disc length: 2124 seconds
#
# Revision: 0
# Processed by: cddbd v1.5.2PL0 Copyright (c) Steve Scherf et al.
# Submitted via: ExactAudioCopy v0.99pb4
#
DISCID=79084a0a
DTITLE=Various Artist - Timeless: R&B Ballads [CD 1)
DYEAR=2007
DGENRE=R&B
TTITLE0=Marvin Gaye - Sexual Healing (Live)
TTITLE1=Al Jarreau - Lean on Me
TTITLE2=Teddy Pendergrass - Turn Off the Lights
TTITLE3=Kool and the Gang - Joanna (Live)
TTITLE4=Stylistics, The - I'm Stone in Love With You (Live)
TTITLE5=Percy Sledge - Warm and Tender Love
TTITLE6=Deon Jackson - Love Makes the World Go Round
TTITLE7=Eddie Holman - Hey There Lonely Girl
TTITLE8=Joe Tex - A Sweet Woman Like You
TTITLE9=Dells, The - Always Together
EXTD=
EXTT0=
EXTT1=
EXTT2=
EXTT3=
EXTT4=
EXTT5=
EXTT6=
EXTT7=
EXTT8=
EXTT9=
PLAYORDER=
